<?xml version="1.0" standalone="no"?><!DOCTYPE svg PUBLIC "-//W3C//DTD SVG 1.1//EN" "http://www.w3.org/Graphics/SVG/1.1/DTD/svg11.dtd"><svg t="1668587268198" class="icon" viewBox="0 0 1024 1024" version="1.1" xmlns="http://www.w3.org/2000/svg" p-id="6550" xmlns:xlink="http://www.w3.org/1999/xlink" width="200" height="200"><path d="M409.2 110c11.8 0 22.4 8.3 29.3 15.3 5.9 6 11.4 13.3 16.5 21.8-15.6-6.2-32.1-9.3-49.4-9.3h-1.3c-14.2 0.1-27.7 2.9-40.2 8.1 7.4-12.2 15.8-21.9 24.3-28.2 7.3-5.1 14-7.7 20.8-7.7m206.9 2.2c6.8 0 13.6 2.6 20.8 7.9 7.9 5.8 15.7 14.5 22.7 25.5-12.2-5.5-24.9-8.5-37.3-8.5h-0.4c-17.2 0-33.6 2.9-49.2 8.6 13.2-21 28.9-33.5 43.4-33.5M409.2 66C342.8 66 289 159.3 289 274.3h0.5c3.6 0 11.9 0.8 19.9 0.8 9.2 0 17.9-1 18.6-5.4 1.1-7.6 15.8-87.3 76.8-87.8h0.9c78.3 0 105.9 94 105.9 94S539.3 181 621.7 181h0.3c32.8 0.1 74.8 45.1 69.5 89.1-0.9 7.6 6.3 9.7 15.3 9.7 11.2 0 25.2-3.3 29.4-3.3 0-115.1-53.8-208.3-120.2-208.3-43.8 0-82.1 40.6-103.1 101.2C492.2 107.5 453.5 66 409.2 66z" fill="#d4237a" p-id="6551"></path><path d="M409.7 182.2c26.9 0 51.4 13.7 65.6 36.6l37.4 60.5 37.4-60.5c6.3-10.2 15-18.9 25.2-25.2 10.6-6.5 22.3-10.3 34.9-11.2 1.9-0.1 3.7-0.2 5.6-0.2 19.4 0 38 7.3 52.3 20.6 14.4 13.3 23 31.4 24.4 51 1 14.6-2.1 29.1-9 41.9-6.7 12.5-16.8 22.9-29 30.1l-21.8 12.8v8.1c-29 35-45.9 81.8-45.9 128.7 0 56.1 24.1 109.1 66.2 146.1l227.2 278.9c-39.1 10.6-62.3 14.7-71.1 14.7-13.3 0-50.4-9.2-77.5-16-40.1-10-78-19.4-103.9-19.4h-2.1c-28.8 0.5-51.7 11.7-71.9 21.5-15.3 7.4-28.5 13.8-40.9 13.8-12.7 0-30.4-7.5-47.5-14.7-23.1-9.7-49.3-20.7-77.8-20.7-1.7 0-3.5 0-5.1 0.1-24.5 1.2-51.3 9.6-79.6 18.4-25.1 7.9-53.6 16.8-71.9 16.8-14.9 0-45.6-5.7-84.4-15.6L375.8 621c41.9-36.9 65.8-89.8 65.8-145.7 0-47.2-18.1-94.1-49.1-129.1v-7.7L373.1 327c-0.2-0.2-0.4-0.3-0.7-0.5-5.7-4.4-11.6-8.9-16.7-12.5-14.9-14.6-23-33.9-23-54.8 0-42.5 34.5-77 77-77m0-44c-66.8 0-121 54.2-121 121 0 35.4 15.2 67.2 39.5 89.3 6.5 4.2 19.8 14.7 20.5 15.1v0.5c28.8 26 49.1 67.1 49.1 111.1 0 46.1-20.8 87.3-53.4 114.9l-262 317.6c-6.2 7.5-2.7 18.9 6.6 21.6 34.9 10 107.2 29.5 141.8 29.5 46.5 0 112.9-33.4 153.6-35.3 1 0 2-0.1 3.1-0.1 39.9 0 82.9 35.4 125.3 35.4 43.5 0 74-34.6 113.6-35.3h1.2c40.4 0 143.4 35.3 181.4 35.3 28.4 0 95-19.3 127.9-29.4 9.1-2.8 12.4-14 6.4-21.5L684.6 590.5c-32.9-27.6-53.8-69-53.8-115.2 0-42.4 17.6-84.2 45.9-111.6 38.5-22.5 63-65.5 59.6-113-4.5-63.7-57.6-112.4-120.6-112.4-2.9 0-5.8 0.1-8.7 0.3-40.3 2.9-74.6 25.2-94.4 57.2-21.3-34.6-59.4-57.6-102.9-57.6z" fill="#d4237a" p-id="6552"></path><path d="M586.6 472.2l-0.5 8-0.2 2.9 0.2 2.9 0.3 4H439.7l0.4-5.4 0.1-1.5v-11h146.4m46.9-43.9H396.1v53.5l-3.5 52.3h240.8l-3.5-51 3.6-54.8z" fill="#d4237a" p-id="6553"></path></svg>